<svg width="100" height="100" viewBox="0 0 100 100" fill="none" xmlns="http://www.w3.org/2000/svg">
  <defs>
    <linearGradient id="gold-luxury" x1="0%" y1="0%" x2="100%" y2="100%">
      <stop offset="0%" stop-color="#D4AF37" />
      <stop offset="20%" stop-color="#FFD700" />
      <stop offset="50%" stop-color="#FFFACD" />
      <stop offset="80%" stop-color="#FFD700" />
      <stop offset="100%" stop-color="#D4AF37" />
    </linearGradient>
    <filter id="gold-glow" x="-20%" y="-20%" width="140%" height="140%">
      <feGaussianBlur stdDeviation="3" result="blur" />
      <feComposite in="SourceGraphic" in2="blur" operator="over" />
    </filter>
  </defs>
  <path d="M50 5 L95 50 L50 95 L5 50 Z" fill="#0A0A0A" stroke="url(#gold-luxury)" stroke-width="2" />
  <path d="M48 35 Q40 35 40 50 Q40 65 48 65 Q55 65 55 58 H48 V54 H60 V58 Q60 72 48 72 Q33 72 33 50 Q33 28 48 28 Q55 28 62 35 L58 40 Q53 35 48 35 Z" fill="url(#gold-luxury)" filter="url(#gold-glow)" />
  <rect x="62" y="45" width="10" height="10" transform="rotate(45 67 50)" fill="url(#gold-luxury)" />
</svg>
